<svg width="1200" height="2571" viewBox="0 0 1200 2571" fill="none" xmlns="http://www.w3.org/2000/svg">
<g clip-path="url(#clip0_48_774)">
<path d="M934.054 352.354C935.756 332.597 937.011 325.774 940.695 316.256C945.034 305.046 944.907 301.627 951.277 297.101C957.646 292.575 959.723 289.924 968.727 290.967C978.759 292.13 990.04 308.855 990.04 308.855C992.765 311.904 996.61 317.031 998.584 320.249C1001.67 325.278 1015.66 354.076 1027.86 380.51C1033.15 391.978 1038.85 393.983 1041.55 385.325C1042.06 383.669 1041.2 371.928 1039.63 359.234C1034.81 320.29 1033.25 302.312 1034.29 297.478C1035.66 291.082 1040.83 283.918 1045.47 281.979C1060.55 275.68 1079.68 288.232 1090.27 311.364C1096.82 325.692 1102.64 335.205 1105.43 336.15C1109.5 337.53 1110.76 332.205 1111.01 312.599C1111.2 298.151 1112.11 290.837 1114.47 284.89C1121.85 266.251 1138.91 262.17 1156.39 274.866C1173.75 287.471 1175.7 301.362 1167.49 353.82C1164.44 373.278 1164.13 378.466 1165.04 394.645C1166.46 420.021 1163.23 430.509 1153.12 433.279C1141.08 436.581 1130.13 428.275 1110.12 400.645C1097.52 383.246 1094.16 380.579 1090.35 384.937C1087.68 387.995 1087.67 387.837 1090.54 418.635C1092.46 439.341 1090.9 455.281 1085.9 465.843C1074.05 490.906 1065.14 495.285 1049.42 483.774C1034.31 472.715 1023.82 455.345 999.656 401.408C991.886 384.061 988.607 380.048 985.12 383.613C983.282 385.491 985.85 412.596 989.109 425.727L993.244 470.262C992.05 483.139 987.311 495.441 981.171 501.606C974.987 507.814 963.116 509.043 953.791 504.44C941.769 498.506 936.214 490.562 929.451 469.63C923.215 450.326 922.479 423.565 927.496 398.468C930.594 382.969 932.68 368.304 934.054 352.354Z" fill="#FE8363"/>
<path d="M959.375 1837.01C953.206 1856.41 951.67 1863.42 951.245 1874.11C950.746 1886.71 949.304 1889.87 953.21 1897.13C957.117 1904.39 957.933 1907.86 966.349 1911.12C975.727 1914.75 992.266 1904.33 992.266 1904.33C995.876 1902.75 1001.29 1899.73 1004.3 1897.63C1009 1894.36 1032.64 1873.85 1053.78 1854.72C1062.94 1846.42 1068.79 1847.22 1067.83 1856.64C1067.64 1858.44 1062.31 1869.08 1055.97 1880.29C1036.54 1914.66 1028.16 1930.85 1027.21 1935.89C1025.94 1942.55 1027.75 1951.73 1031.12 1955.74C1042.09 1968.77 1064 1965.98 1082.41 1949.2C1093.81 1938.8 1102.69 1932.59 1105.53 1933.02C1109.69 1933.64 1108.75 1939.24 1101.34 1957.81C1095.89 1971.5 1093.86 1978.81 1093.64 1985.51C1092.96 2006.53 1106.56 2018.42 1127.04 2014.7C1147.39 2011.02 1154.52 1998.87 1167.61 1945.63C1172.47 1925.88 1174.21 1920.86 1181.31 1906.06C1192.45 1882.85 1193.65 1871.45 1185.73 1864.09C1176.3 1855.3 1163.34 1857.96 1134.79 1874.54C1116.81 1884.97 1112.79 1885.9 1111.09 1880C1109.9 1875.86 1109.84 1876.01 1124.36 1848.38C1134.13 1829.8 1138.93 1814.06 1138.6 1801.77C1137.8 1772.6 1131.58 1764.28 1113.11 1767.7C1095.37 1770.99 1079.28 1782.39 1036.81 1821.77C1023.15 1834.43 1018.68 1836.66 1016.96 1831.66C1016.06 1829.03 1028.88 1804.73 1036.89 1793.91L1057.88 1753.95C1061.83 1741.27 1062.4 1727.46 1059.33 1718.76C1056.25 1710.01 1046.16 1703.26 1036.08 1703.19C1023.07 1703.11 1015.04 1707.97 1000.89 1724.48C987.831 1739.71 976.77 1764.55 971.473 1790.53C968.202 1806.57 964.355 1821.36 959.375 1837.01Z" fill="#7DE2F2"/>
<path d="M1171.02 2459.55C1173.47 2490.57 1173.62 2501.81 1171.85 2519.03C1169.76 2539.31 1170.62 2544.34 1165.01 2556.19C1159.4 2568.04 1157.82 2573.67 1148.32 2579.24C1137.72 2585.45 1122.53 2569.28 1122.53 2569.28C1119.07 2566.86 1114.01 2562.21 1111.29 2558.94C1107.04 2553.84 1086.49 2521.68 1068.28 2491.66C1060.39 2478.63 1054.08 2480.14 1053.14 2495.28C1052.96 2498.18 1056.35 2515.13 1060.67 2532.94C1073.93 2587.61 1079.35 2613.38 1079.31 2621.46C1079.26 2632.15 1075.45 2647.01 1071.08 2653.6C1056.86 2675.02 1034.46 2671.35 1018.62 2645C1008.82 2628.68 1000.79 2619.01 997.716 2619.8C993.224 2620.96 993.054 2629.96 996.964 2659.6C999.846 2681.45 1000.46 2693.16 999.296 2703.95C995.646 2737.8 978.914 2757.47 958.186 2752.26C937.604 2747.1 932.637 2727.78 929.953 2642.48C928.956 2610.84 928.174 2602.8 923.797 2579.22C916.93 2542.24 918.036 2523.93 927.868 2511.75C939.589 2497.24 952.642 2501.04 979.158 2526.66C995.855 2542.8 999.884 2544.14 1002.89 2534.57C1005 2527.86 1005.03 2528.09 995.531 2484.11C989.142 2454.54 987.366 2429.36 990.27 2409.54C997.161 2362.5 1005.42 2348.85 1024.09 2353.67C1042.02 2358.3 1056.53 2376.06 1092.93 2437.9C1104.63 2457.79 1108.87 2461.22 1111.7 2453.1C1113.2 2448.82 1104.79 2410.15 1098.63 2393.02L1084.9 2329.41C1083.39 2309.12 1085.66 2286.89 1090.68 2272.76C1095.74 2258.53 1107.72 2247.27 1118.32 2246.79C1131.98 2246.17 1139.4 2253.69 1150.82 2279.76C1161.36 2303.81 1167.81 2343.42 1167.98 2385.09C1168.08 2410.82 1169.05 2434.5 1171.02 2459.55Z" fill="#00B99A"/>
<path d="M858.469 1577.88C877.843 1585.31 884.812 1587.17 895.341 1587.7C907.743 1588.34 910.92 1590.07 917.856 1585.42C924.792 1580.77 928.163 1579.8 930.939 1569.75C934.031 1558.55 922.945 1538.75 922.945 1538.75C921.203 1534.43 917.967 1527.95 915.751 1524.35C912.29 1518.73 890.931 1490.4 871.058 1465.09C862.436 1454.11 862.923 1447.12 872.227 1448.3C874.007 1448.53 884.737 1454.93 896.071 1462.54C930.843 1485.86 947.175 1495.92 952.174 1497.08C958.788 1498.61 967.714 1496.47 971.484 1492.45C983.734 1479.37 979.872 1453.18 962.442 1431.13C951.646 1417.47 945.09 1406.84 945.362 1403.44C945.759 1398.47 951.317 1399.62 969.942 1408.52C983.666 1415.07 990.956 1417.52 997.557 1417.8C1018.25 1418.67 1029.23 1402.45 1024.54 1377.95C1019.88 1353.63 1007.58 1345.06 954.594 1329.27C934.942 1323.41 929.911 1321.31 915.007 1312.79C891.633 1299.41 880.374 1297.94 873.538 1307.38C865.387 1318.63 868.661 1334.14 886.401 1368.31C897.573 1389.82 898.69 1394.64 892.98 1396.65C888.974 1398.06 889.124 1398.14 861.227 1380.7C842.473 1368.98 826.762 1363.19 814.7 1363.55C786.075 1364.42 778.216 1371.84 782.521 1393.92C786.658 1415.14 798.683 1434.4 839.537 1485.28C852.677 1501.64 855.098 1507 850.274 1509.03C847.732 1510.11 823.202 1494.71 812.16 1485.11L771.82 1459.9C759.158 1455.15 745.558 1454.43 737.169 1458.07C728.723 1461.74 722.603 1473.77 723.056 1485.83C723.639 1501.37 728.822 1510.99 745.769 1527.95C761.399 1543.6 786.37 1556.89 812.172 1563.29C828.106 1567.25 842.829 1571.89 858.469 1577.88Z" fill="#FFC7C7"/>
<path d="M408.171 240.847C405.437 249.939 401.479 261.211 394.74 265.563L383.877 277.41C375.899 284.688 382.962 278.262 375.273 286.351C367.418 294.614 360.458 304.628 349.059 305.866C337.049 307.17 336.407 296.71 338.669 284.723C339.713 279.193 345.501 246.715 333.597 249.9C326.242 251.869 317.524 262.371 312.782 268.856C307.483 276.102 304.406 284.701 298.177 291.308C285.927 304.301 263 298.257 248.538 293.243C230.432 286.966 197.897 267.128 210.144 240.004C217.971 222.67 230.647 205.745 218.779 185.713C216.771 182.324 197.961 202.302 194.603 204.302C185.802 209.543 164.885 214.018 157.208 202.93C149.459 191.736 168.666 168.983 173.795 162.676C177.165 158.533 194.125 133.578 177.856 133.349C161.768 133.123 144.688 142.538 132.104 153.329C116.896 166.368 100.665 177.619 85.3807 190.553C72.7249 201.263 49.241 215.316 33.7185 202.696C18.1111 190.007 21.3394 159.974 31.1623 144.587C50.759 113.89 81.0423 89.2312 106.336 65.1482C132.926 39.8315 172.039 7.33815 209.043 21.035C233.636 30.1383 234.648 62.8463 225.259 85.3753C222.823 91.2205 206.486 126.983 222.352 126.044C248.943 124.469 268.524 86.2044 295.662 106.315C305.166 113.357 301.702 127.383 299.658 137.855C295.863 157.3 281.987 175.584 273.42 192.444C268.45 202.224 263.276 212.64 264.463 224.538C265.115 231.073 266.61 243.57 274.037 244.625C281 245.614 286.955 240.465 292.391 236.478C300.564 230.484 309.154 225.303 317.427 219.504C331.151 209.884 406.685 149.54 410.605 198.343C411.701 211.981 412.063 227.905 408.171 240.847Z" fill="#F9C558"/>
<path d="M85.9723 1045.85C71.3962 1073.5 63.9728 1083.39 44.2879 1095.9C44.2879 1095.9 31.3381 1101.59 22.7132 1109.27C14.0884 1116.95 6.90911 1139.59 13.6833 1150.5C20.2408 1161.05 26.7229 1161.96 36.6881 1168.7C47.8841 1176.27 75.4851 1169.44 85.0401 1162.08C106.683 1145.4 123.827 1117.16 127.657 1088.89C129.099 1078.24 128.189 1066.97 128.189 1056.18V1016.54C128.189 1004.34 127.444 991.922 132.984 980.799C140.359 965.99 150.237 980.486 154.625 988.939C164.222 1007.43 174.901 1022.1 187.853 1037.92C196.72 1048.75 206.967 1048.61 219.016 1042.73C232.224 1036.29 240.977 1017.35 249.181 1005.57C253.396 999.524 259.607 990.183 267.826 992.125C274.306 993.655 280.413 1010.91 283.074 1016.26C288.326 1026.83 297.672 1029.76 307.978 1027.45C316.831 1025.45 328.29 1013.04 333.149 1005.29C340.97 992.82 342.784 976.533 352.393 965.298C360.558 955.75 369.894 946.124 381.359 941.09C392.109 936.37 402.913 933.698 411.657 925.093C426.835 910.153 424.605 883.488 418.915 864.36C413.579 846.426 396.154 804.937 373.635 818.776C355.475 829.936 353.803 848.339 345.002 866.625C338.692 879.735 329.589 890.991 323.56 904.424C316.987 919.067 312.413 936.14 302.119 948.451C290.329 962.55 280.38 945.293 275.35 934.719C269.178 921.743 258.71 908.833 244.187 918.439C227.214 929.665 232.592 997.161 200.105 976.057C189.229 968.991 187.701 948.547 185.722 936.701C182.636 918.228 177.282 898.603 163.215 886.303C137.769 864.053 118.951 947.654 115.604 959.564C107.284 989.175 100.268 1018.73 85.9723 1045.85Z" fill="#00B99A"/>
<path d="M400.192 1663.2C411.959 1651.11 421.335 1635.86 431.39 1622.21L434.244 1613.58C438.791 1592.04 414.392 1603.74 397.115 1612.08C387.349 1616.79 379.047 1629.81 370.735 1637.03C356.436 1649.45 339.379 1658.26 321.209 1655.4C296.31 1651.48 279.891 1626.43 290.205 1600.75C297.698 1582.1 312.673 1567.64 322.636 1550.52C329.318 1539.05 340.868 1512.11 328.034 1501.97C316.227 1492.65 295.161 1498.92 281.716 1501.9C273.621 1503.7 257.149 1507.69 250.863 1499.72C248.238 1496.4 254.464 1489.45 256.161 1487.15C263.513 1477.16 273.375 1464.4 273.945 1451.66C274.633 1436.26 265.797 1424.9 254.364 1416.99C230.852 1400.72 205.752 1395.36 177.141 1393.63C146.78 1391.8 103.977 1385.86 76.6748 1406.87C67.824 1413.68 57.2377 1427.19 55.6494 1438.86C54.4059 1448.01 63.2081 1454.49 69.7907 1457.9C85.1983 1465.89 105.161 1467.9 122.588 1467.49C145.138 1466.97 165.868 1459.51 188.045 1456C199.912 1454.11 214.099 1464.49 208.577 1478.49C201.13 1497.37 183.603 1510.38 175.628 1528.97C169.386 1543.51 181.198 1553.91 192.591 1558.94C205.025 1564.43 219.887 1562.69 233.153 1559.62C241.853 1557.6 266.161 1549.26 269.509 1562.68C272.495 1574.65 264.205 1588.88 258.713 1599.1C250.573 1614.25 239.222 1630.11 234.357 1646.72C230.313 1660.53 232.98 1668.93 244.339 1676.33C274.303 1695.86 313.724 1690.07 348.119 1685.84C365.477 1683.7 387.136 1676.62 400.192 1663.2Z" fill="#0590CB"/>
<path d="M46.8801 2504.54C48.9082 2517.44 51.9454 2533.4 57.9117 2539.38L67.2697 2555.92C74.219 2566.03 68.066 2557.1 74.7063 2568.39C81.4894 2579.91 87.3561 2593.97 97.7757 2595.33C108.755 2596.77 109.906 2581.8 108.468 2564.75C107.804 2556.89 104.22 2510.69 115 2514.82C121.661 2517.37 129.119 2532.06 133.134 2541.16C137.62 2551.32 139.989 2563.5 145.366 2572.72C155.94 2590.84 177.356 2581.39 190.929 2573.71C207.922 2564.1 238.917 2534.59 229.104 2496.27C222.832 2471.79 212.078 2448.06 224.07 2419.01C226.099 2414.1 242.333 2441.97 245.314 2444.71C253.13 2451.88 272.134 2457.53 279.79 2441.41C287.519 2425.14 271.069 2393.32 266.688 2384.49C263.81 2378.69 249.545 2343.64 264.524 2342.73C279.337 2341.84 294.545 2354.68 305.544 2369.65C318.836 2387.74 333.164 2403.23 346.532 2421.17C357.601 2436.02 378.452 2455.26 393.409 2436.67C408.447 2417.99 407.087 2375.19 398.875 2353.56C382.492 2310.4 355.954 2276.24 333.975 2242.74C310.871 2207.51 276.63 2162.48 241.854 2183.37C218.741 2197.26 216.057 2244.03 223.487 2275.88C225.414 2284.15 238.527 2334.66 223.981 2333.88C199.602 2332.58 183.64 2278.61 157.595 2308.31C148.475 2318.71 150.91 2338.63 152.229 2353.52C154.678 2381.17 166.463 2406.79 173.441 2430.58C177.489 2444.37 181.69 2459.07 179.961 2476.11C179.011 2485.47 176.965 2503.38 170.076 2505.16C163.617 2506.82 158.415 2499.67 153.628 2494.17C146.43 2485.9 138.805 2478.8 131.505 2470.81C119.396 2457.56 53.1417 2374.03 46.919 2443.9C45.1801 2463.43 43.9934 2486.19 46.8801 2504.54Z" fill="#FE8363"/>
<path d="M886.396 897.53C898.817 875.624 914.465 854.2 928.483 833.132L937.33 823.792C959.415 803.397 947.365 839.361 938.776 864.866C933.921 879.283 920.563 897.91 913.144 912.449C900.381 937.46 891.307 963.05 894.196 981.646C898.154 1007.13 923.784 1008.04 950.115 978.184C969.245 956.49 984.103 929.267 1001.67 905.856C1013.44 890.156 1041.07 858 1051.43 865.395C1060.96 872.197 1054.48 900.542 1051.39 917.909C1049.53 928.366 1045.4 949.879 1053.54 951.38C1056.95 952.006 1064.08 940.029 1066.44 936.473C1076.69 921.068 1089.79 900.853 1102.85 891.194C1118.63 879.524 1130.25 881.52 1138.33 888.899C1154.94 904.073 1160.37 928.767 1162.07 960.013C1163.88 993.171 1169.85 1037.55 1148.25 1083.39C1141.25 1098.25 1127.39 1119.82 1115.42 1129.88C1106.05 1137.75 1099.43 1132.35 1095.95 1127.29C1087.8 1115.46 1085.79 1094.22 1086.25 1074.16C1086.85 1048.2 1094.53 1019.4 1098.2 991.744C1100.15 976.945 1089.55 968.188 1075.2 984.352C1055.83 1006.16 1042.45 1035.25 1023.39 1057.44C1008.47 1074.81 997.842 1068.76 992.717 1059.39C987.124 1049.16 988.942 1031.07 992.128 1013.84C994.217 1002.53 1002.82 969.051 989.079 974.743C976.822 979.819 962.222 999.289 951.733 1012.75C936.19 1032.7 919.911 1056.8 902.877 1074.07C888.715 1088.43 880.117 1091.34 872.559 1083.68C852.622 1063.49 858.649 1014.66 863.075 972.632C865.309 951.421 872.613 921.838 886.396 897.53Z" fill="#8B7FFF"/>
</g>
<defs>
<clipPath id="clip0_48_774">
<rect width="1200" height="2571" fill="white"/>
</clipPath>
</defs>
</svg>
