<svg width="1740" height="2736" viewBox="0 0 1740 2736" fill="none" xmlns="http://www.w3.org/2000/svg">
<g clip-path="url(#clip0_47_337)">
<path d="M1368.57 296.805C1371.96 271.898 1373.97 263.254 1379.19 251.066C1385.35 236.711 1385.41 232.429 1393.68 226.328C1401.95 220.228 1404.72 216.764 1415.93 217.479C1428.43 218.276 1441.5 238.519 1441.5 238.519C1444.72 242.165 1449.21 248.345 1451.48 252.254C1455.02 258.36 1470.72 293.577 1484.32 325.944C1490.22 339.985 1497.23 342.125 1501.17 331.083C1501.92 328.97 1501.58 314.293 1500.42 298.466C1496.86 249.912 1496.06 227.454 1497.67 221.319C1499.79 213.203 1506.73 203.871 1512.67 201.131C1531.97 192.23 1555.15 206.717 1566.93 235.048C1574.23 252.596 1580.92 264.15 1584.35 265.151C1589.36 266.615 1591.28 259.849 1592.85 235.228C1594 217.085 1595.61 207.845 1598.94 200.228C1609.38 176.349 1631.03 170.1 1652.12 184.878C1673.07 199.551 1674.63 216.854 1660.99 283.228C1655.93 307.848 1655.21 314.379 1655.31 334.623C1655.48 366.373 1650.76 379.749 1637.92 383.892C1622.62 388.832 1609.43 379.131 1586.12 345.778C1571.44 324.776 1567.4 321.651 1562.35 327.372C1558.8 331.387 1558.81 331.187 1560.43 369.648C1561.52 395.506 1558.54 415.613 1551.61 429.197C1535.17 461.432 1523.72 467.516 1504.75 454.109C1486.53 441.228 1474.49 420.123 1447.65 354.031C1439.02 332.775 1435.16 327.956 1430.57 332.66C1428.14 335.138 1429.64 368.984 1432.88 385.246L1435.22 440.862C1432.91 457.101 1426.18 472.852 1418.1 480.995C1409.95 489.193 1395 491.519 1383.61 486.359C1368.92 479.706 1362.47 470.104 1355.33 444.282C1348.74 420.469 1349.53 386.934 1357.41 355.107C1362.28 335.453 1365.83 316.912 1368.57 296.805Z" fill="#FE8363"/>
<path d="M1393.5 1911.87C1385 1937.67 1382.88 1947 1382.3 1961.22C1381.61 1977.97 1379.62 1982.17 1385.01 1991.83C1390.39 2001.49 1391.51 2006.11 1403.11 2010.45C1416.03 2015.28 1438.82 2001.42 1438.82 2001.42C1443.79 1999.31 1451.26 1995.3 1455.4 1992.51C1461.88 1988.15 1494.46 1960.86 1523.58 1935.42C1536.21 1924.38 1544.27 1925.45 1542.94 1937.97C1542.68 1940.37 1535.33 1954.53 1526.6 1969.43C1499.82 2015.16 1488.28 2036.69 1486.96 2043.39C1485.22 2052.26 1487.71 2064.46 1492.36 2069.8C1507.48 2087.14 1537.66 2083.42 1563.03 2061.1C1578.74 2047.27 1590.97 2039.01 1594.89 2039.57C1600.62 2040.4 1599.32 2047.86 1589.12 2072.56C1581.61 2090.76 1578.81 2100.49 1578.51 2109.41C1577.57 2137.37 1596.3 2153.17 1624.53 2148.24C1652.56 2143.34 1662.4 2127.17 1680.44 2056.35C1687.13 2030.09 1689.53 2023.4 1699.31 2003.71C1714.65 1972.84 1716.31 1957.68 1705.4 1947.88C1692.41 1936.2 1674.54 1939.74 1635.21 1961.78C1610.44 1975.66 1604.89 1976.9 1602.55 1969.05C1600.91 1963.55 1600.83 1963.74 1620.84 1926.98C1634.29 1902.27 1640.92 1881.33 1640.45 1864.98C1639.36 1826.18 1630.78 1815.11 1605.34 1819.67C1580.89 1824.04 1558.72 1839.21 1500.2 1891.58C1481.38 1908.43 1475.21 1911.39 1472.85 1904.75C1471.6 1901.24 1489.27 1868.92 1500.3 1854.53L1529.24 1801.37C1534.67 1784.5 1535.46 1766.13 1531.23 1754.56C1526.98 1742.92 1513.09 1733.94 1499.19 1733.85C1481.27 1733.75 1470.2 1740.21 1450.7 1762.17C1432.71 1782.43 1417.47 1815.47 1410.17 1850.03C1405.66 1871.37 1400.36 1891.04 1393.5 1911.87Z" fill="#7DE2F2"/>
<path d="M1515.71 2626.26C1518.77 2663.69 1518.96 2677.26 1516.75 2698.03C1514.13 2722.5 1515.21 2728.57 1508.2 2742.87C1501.19 2757.16 1499.22 2763.96 1487.34 2770.68C1474.09 2778.17 1455.11 2758.66 1455.11 2758.66C1450.79 2755.74 1444.47 2750.13 1441.07 2746.19C1435.75 2740.03 1410.06 2701.23 1387.31 2665.01C1377.44 2649.29 1369.56 2651.11 1368.39 2669.38C1368.17 2672.87 1372.4 2693.32 1377.8 2714.82C1394.37 2780.78 1401.15 2811.87 1401.1 2821.62C1401.03 2834.52 1396.28 2852.45 1390.81 2860.4C1373.04 2886.25 1345.04 2881.82 1325.25 2850.02C1312.99 2830.33 1302.96 2818.66 1299.12 2819.62C1293.5 2821.01 1293.29 2831.87 1298.18 2867.64C1301.78 2894 1302.55 2908.12 1301.09 2921.15C1296.53 2961.99 1275.62 2985.72 1249.71 2979.44C1223.99 2973.21 1217.78 2949.9 1214.43 2846.98C1213.18 2808.81 1212.21 2799.11 1206.74 2770.66C1198.15 2726.04 1199.54 2703.94 1211.82 2689.25C1226.47 2671.74 1242.79 2676.32 1275.93 2707.24C1296.79 2726.71 1301.83 2728.33 1305.58 2716.79C1308.22 2708.68 1308.26 2708.97 1296.39 2655.9C1288.4 2620.22 1286.18 2589.84 1289.81 2565.92C1298.42 2509.17 1308.75 2492.7 1332.07 2498.52C1354.48 2504.1 1372.63 2525.54 1418.11 2600.15C1432.74 2624.15 1438.03 2628.28 1441.58 2618.49C1443.45 2613.32 1432.93 2566.67 1425.24 2545.99L1408.07 2469.25C1406.19 2444.77 1409.03 2417.94 1415.3 2400.9C1421.62 2383.73 1436.6 2370.14 1449.84 2369.56C1466.92 2368.81 1476.19 2377.89 1490.47 2409.35C1503.64 2438.36 1511.7 2486.15 1511.91 2536.43C1512.03 2567.48 1513.24 2596.05 1515.71 2626.26Z" fill="#00B99A"/>
<path d="M1115.27 1653.88C1135.34 1661.31 1142.56 1663.17 1153.47 1663.7C1166.31 1664.34 1169.6 1666.07 1176.79 1661.42C1183.97 1656.77 1187.46 1655.8 1190.34 1645.75C1193.54 1634.55 1182.06 1614.75 1182.06 1614.75C1180.25 1610.43 1176.9 1603.95 1174.61 1600.35C1171.02 1594.73 1148.9 1566.4 1128.31 1541.09C1119.38 1530.11 1119.89 1523.12 1129.52 1524.3C1131.37 1524.53 1142.48 1530.93 1154.22 1538.54C1190.24 1561.86 1207.16 1571.92 1212.34 1573.08C1219.19 1574.61 1228.43 1572.47 1232.34 1568.45C1245.03 1555.37 1241.03 1529.18 1222.97 1507.13C1211.79 1493.47 1205 1482.84 1205.28 1479.44C1205.69 1474.47 1211.45 1475.62 1230.74 1484.51C1244.96 1491.07 1252.51 1493.52 1259.34 1493.8C1280.78 1494.67 1292.15 1478.45 1287.29 1453.95C1282.47 1429.63 1269.72 1421.06 1214.84 1405.27C1194.49 1399.41 1189.27 1397.31 1173.84 1388.79C1149.63 1375.41 1137.96 1373.94 1130.88 1383.38C1122.44 1394.63 1125.83 1410.14 1144.21 1444.31C1155.78 1465.82 1156.93 1470.63 1151.02 1472.65C1146.87 1474.06 1147.03 1474.13 1118.13 1456.7C1098.7 1444.98 1082.43 1439.19 1069.93 1439.55C1040.28 1440.42 1032.14 1447.84 1036.6 1469.92C1040.89 1491.14 1053.34 1510.4 1095.66 1561.28C1109.27 1577.64 1111.78 1583 1106.78 1585.03C1104.15 1586.11 1078.74 1570.71 1067.3 1561.11L1025.52 1535.9C1012.4 1531.15 998.315 1530.43 989.626 1534.07C980.877 1537.74 974.538 1549.77 975.007 1561.83C975.611 1577.37 980.98 1586.99 998.535 1603.95C1014.72 1619.6 1040.59 1632.89 1067.32 1639.29C1083.82 1643.25 1099.07 1647.89 1115.27 1653.88Z" fill="#FFC7C7"/>
<path d="M510.415 252.266C507.62 265.188 503.519 281.19 496.101 287.211L484.286 303.827C475.567 313.995 483.286 305.017 474.914 316.355C466.362 327.936 458.862 342.047 446.137 343.472C432.727 344.973 431.702 329.993 433.884 312.917C434.891 305.038 440.42 258.758 427.186 262.954C419.008 265.546 409.555 280.304 404.435 289.435C398.715 299.639 395.522 311.845 388.741 321.107C375.406 339.319 349.559 329.978 333.22 322.368C312.765 312.841 275.757 283.479 288.675 245.055C296.93 220.499 310.627 196.673 296.753 167.661C294.406 162.753 273.93 190.759 270.23 193.516C260.529 200.747 237.24 206.513 228.321 190.42C219.318 174.174 240.155 142.212 245.713 133.347C249.365 127.522 267.624 92.343 249.402 91.522C231.382 90.71 212.535 103.659 198.761 118.712C182.116 136.902 164.273 152.502 147.539 170.539C133.683 185.473 107.801 204.862 90.0523 186.34C72.2062 167.717 74.9413 124.857 85.4887 103.146C106.531 59.8334 139.715 25.482 167.329 -8.19769C196.359 -43.6027 239.199 -88.8929 281.03 -68.1793C308.832 -54.4125 310.922 -7.59831 301.07 24.3409C298.514 32.6277 281.269 83.2855 299.007 82.4227C328.732 80.9769 349.535 26.8392 380.509 56.4268C391.355 66.7877 387.888 86.7446 385.906 101.661C382.226 129.36 367.226 155.091 358.127 178.947C352.849 192.784 347.362 207.527 349.039 224.58C349.96 233.947 352 251.867 360.347 253.602C368.172 255.228 374.688 248.044 380.657 242.506C389.633 234.18 399.099 227.03 408.192 218.986C423.275 205.643 506.078 121.622 511.896 191.545C513.522 211.086 514.394 233.872 510.415 252.266Z" fill="#F9C558"/>
<path d="M299.932 931.383C284.198 961.987 276.184 972.933 254.934 986.78C254.934 986.78 240.955 993.074 231.644 1001.58C222.334 1010.08 214.584 1035.13 221.897 1047.2C228.975 1058.88 235.973 1059.88 246.73 1067.34C258.816 1075.73 288.612 1068.17 298.926 1060.02C322.29 1041.56 340.796 1010.31 344.931 979.014C346.487 967.233 345.506 954.759 345.506 942.821V898.951C345.506 885.446 344.702 871.7 350.681 859.39C358.643 843 369.307 859.043 374.043 868.399C384.403 888.862 395.931 905.103 409.912 922.61C419.485 934.596 430.546 934.443 443.553 927.937C457.811 920.804 467.259 899.839 476.116 886.809C480.666 880.114 487.371 869.776 496.243 871.924C503.239 873.618 509.831 892.712 512.704 898.638C518.373 910.332 528.462 913.58 539.588 911.015C549.144 908.812 561.514 895.069 566.759 886.495C575.202 872.694 577.161 854.668 587.533 842.234C596.347 831.667 606.425 821.013 618.802 815.442C630.406 810.218 642.07 807.262 651.508 797.737C667.894 781.203 665.486 751.692 659.343 730.522C653.584 710.674 634.773 664.756 610.464 680.072C590.86 692.423 589.055 712.791 579.554 733.029C572.743 747.538 562.917 759.996 556.408 774.862C549.313 791.069 544.375 809.964 533.262 823.589C520.536 839.192 509.795 820.094 504.365 808.391C497.703 794.03 486.403 779.742 470.725 790.373C452.403 802.798 458.208 877.498 423.139 854.141C411.397 846.322 409.748 823.695 407.612 810.585C404.281 790.14 398.501 768.42 383.316 754.807C355.847 730.182 335.533 822.706 331.92 835.888C322.938 868.66 315.364 901.37 299.932 931.383Z" fill="#00B99A"/>
<path d="M429.423 1774.27C444.195 1758.91 456.545 1740.12 469.511 1723.12L473.683 1712.76C481.138 1687.15 451.895 1703.41 431.183 1714.99C419.475 1721.54 408.589 1737.6 398.291 1746.91C380.578 1762.93 360.069 1775.03 339.49 1773.64C311.291 1771.74 295.023 1744.29 309.53 1713.26C320.071 1690.71 338.772 1672.24 351.992 1651.21C360.856 1637.11 376.916 1604.47 363.22 1594.03C350.622 1584.42 325.77 1593.99 310.015 1598.91C300.528 1601.88 281.192 1608.29 274.795 1599.68C272.124 1596.08 279.995 1587.32 282.184 1584.45C291.665 1572.02 304.315 1556.08 306.29 1541.16C308.676 1523.14 299.7 1510.85 287.385 1502.85C262.058 1486.4 233.776 1482.84 201.085 1483.89C166.394 1485.01 117.834 1482.69 84.2915 1510.11C73.4178 1519 59.8572 1535.88 56.8231 1549.67C54.4479 1560.46 63.8888 1567.07 71.098 1570.34C87.9724 1578 110.698 1578.21 130.761 1575.86C156.724 1572.83 181.311 1561.92 207.154 1555.44C220.983 1551.97 236.206 1562.55 228.413 1579.46C217.901 1602.27 196.418 1619.33 185.331 1641.85C176.654 1659.47 189.147 1670.34 201.715 1674.98C215.432 1680.04 232.686 1676.42 248.245 1671.41C258.45 1668.12 287.241 1655.79 289.697 1671.08C291.888 1684.72 280.891 1702.19 273.521 1714.7C262.601 1733.24 247.918 1752.95 240.608 1772.84C234.532 1789.37 236.726 1798.88 249.009 1806.29C281.412 1825.85 327.3 1814.87 367.254 1806.24C387.418 1801.89 413.033 1791.32 429.423 1774.27Z" fill="#0590CB"/>
<path d="M84.3444 2593.69C87.0235 2606.64 90.9814 2622.67 98.3447 2628.76L110.01 2645.48C118.638 2655.73 110.999 2646.68 119.269 2658.09C127.717 2669.75 135.09 2683.93 147.802 2685.47C161.198 2687.09 162.357 2672.12 160.328 2655.02C159.392 2647.14 154.279 2600.81 167.475 2605.12C175.629 2607.79 184.95 2622.63 189.987 2631.81C195.616 2642.06 198.699 2654.3 205.397 2663.62C218.568 2681.95 244.497 2672.84 260.904 2665.38C281.443 2656.03 318.714 2627.01 306.141 2588.47C298.106 2563.84 284.623 2539.89 298.757 2511C301.148 2506.12 321.372 2534.31 325.047 2537.1C334.683 2544.41 357.919 2550.39 366.982 2534.38C376.131 2518.21 355.581 2486.06 350.103 2477.15C346.503 2471.29 328.561 2435.95 346.79 2435.29C364.816 2434.64 383.546 2447.76 397.184 2462.94C413.666 2481.27 431.368 2497.03 447.94 2515.22C461.661 2530.28 487.368 2549.9 505.282 2531.54C523.294 2513.07 520.944 2470.19 510.592 2448.39C489.939 2404.89 457.065 2370.24 429.753 2336.31C401.043 2300.65 358.61 2254.98 316.595 2275.31C288.671 2288.83 286.161 2335.62 295.726 2367.65C298.208 2375.96 314.997 2426.77 297.268 2425.75C267.557 2424.04 247.241 2369.71 216.003 2399.02C205.064 2409.29 208.352 2429.27 210.2 2444.21C213.632 2471.94 228.4 2497.8 237.284 2521.74C242.438 2535.62 247.793 2550.41 245.963 2567.45C244.958 2576.81 242.757 2594.71 234.395 2596.37C226.556 2597.93 220.104 2590.68 214.185 2585.09C205.285 2576.69 195.883 2569.45 186.863 2561.33C171.9 2547.85 89.8541 2463.09 83.4085 2532.96C81.6072 2552.48 80.5311 2575.26 84.3444 2593.69Z" fill="#FE8363"/>
<path d="M1226.6 974.53C1239.47 952.623 1255.67 931.2 1270.19 910.132L1279.36 900.792C1302.23 880.397 1289.75 916.361 1280.86 941.866C1275.83 956.283 1261.99 974.91 1254.3 989.449C1241.09 1014.46 1231.69 1040.05 1234.68 1058.65C1238.78 1084.13 1265.33 1085.04 1292.6 1055.18C1312.42 1033.49 1327.81 1006.27 1346 982.856C1358.2 967.156 1386.82 935 1397.55 942.395C1407.42 949.197 1400.7 977.541 1397.5 994.908C1395.57 1005.37 1391.3 1026.88 1399.74 1028.38C1403.26 1029.01 1410.65 1017.03 1413.1 1013.47C1423.72 998.068 1437.28 977.853 1450.81 968.194C1467.16 956.524 1479.19 958.52 1487.56 965.899C1504.77 981.073 1510.39 1005.77 1512.15 1037.01C1514.02 1070.17 1520.21 1114.55 1497.84 1160.39C1490.59 1175.25 1476.23 1196.82 1463.83 1206.88C1454.12 1214.75 1447.26 1209.35 1443.66 1204.29C1435.22 1192.46 1433.14 1171.22 1433.62 1151.16C1434.23 1125.2 1442.2 1096.4 1445.99 1068.74C1448.02 1053.95 1437.03 1045.19 1422.16 1061.35C1402.1 1083.16 1388.25 1112.25 1368.5 1134.44C1353.05 1151.81 1342.04 1145.76 1336.73 1136.39C1330.94 1126.16 1332.82 1108.07 1336.12 1090.84C1338.28 1079.53 1347.2 1046.05 1332.96 1051.74C1320.27 1056.82 1305.14 1076.29 1294.28 1089.75C1278.18 1109.7 1261.31 1133.8 1243.67 1151.07C1229 1165.43 1220.09 1168.34 1212.27 1160.68C1191.61 1140.49 1197.86 1091.66 1202.44 1049.63C1204.76 1028.42 1212.32 998.838 1226.6 974.53Z" fill="#8B7FFF"/>
</g>
<defs>
<clipPath id="clip0_47_337">
<rect width="1740" height="2736" fill="white"/>
</clipPath>
</defs>
</svg>
