<svg width="550" height="2020" viewBox="0 0 550 2020" fill="none" xmlns="http://www.w3.org/2000/svg">
<g clip-path="url(#clip0_51_1206)">
<path d="M169.471 39.4067C167.613 44.213 164.943 50.177 160.542 52.5347L153.401 58.8741C148.17 62.782 152.8 59.3311 147.748 63.6626C142.587 68.0871 137.988 73.4218 130.604 74.1921C122.824 75.0038 122.511 69.5148 124.092 63.1927C124.821 60.2759 128.883 43.1497 121.154 44.9489C116.377 46.0606 110.636 51.6708 107.506 55.1279C104.008 58.9911 101.934 63.5417 97.8401 67.0789C89.7902 74.0346 75.0222 71.1001 65.7184 68.6178C54.071 65.5103 33.2241 55.4292 41.4107 41.0488C46.6425 31.8586 55.0067 22.8317 47.5281 12.4314C46.2627 10.6717 33.9015 21.3672 31.7108 22.4531C25.9673 25.2999 12.3956 27.8714 7.54008 22.1259C2.63851 16.326 15.2829 4.16867 18.6619 0.800776C20.8819 -1.41198 32.0955 -14.7024 21.5761 -14.6515C11.1737 -14.6011 0.0358129 -9.4742 -8.20901 -3.6719C-18.1722 3.33968 -32.3972 -18.2003 -42.4089 -11.2433C-50.6988 -5.48287 -62.4061 29.7706 -72.3209 23.3031C-82.2901 16.8001 -79.9076 0.985751 -73.404 -7.20254C-60.4292 -23.5381 -40.6024 -36.8133 -24.0079 -49.7336C-6.56332 -63.3157 19.0506 -80.8006 42.847 -73.9933C58.6628 -69.469 58.996 -52.2938 52.7031 -40.3575C51.0703 -37.2606 40.1539 -18.2976 50.4244 -18.9583C67.6366 -20.0656 80.6754 -40.3773 98.029 -30.0964C104.106 -26.4963 101.728 -19.0901 100.304 -13.5664C99 -8.51132 100.658 -10.8757 101.992 -13.5033C100.929 -13.037 100.533 -13.1344 101.5 -14.6515C104.394 -19.1903 103.364 -16.2074 101.992 -13.5033C104.564 -14.6324 111.039 -19.0668 111.5 -14.6515C111.857 -11.2246 104.207 -11.4762 109 -11C113.493 -10.5536 105.445 -3.34802 109 -5.5C92.5 8.5 118.685 18.5272 124.092 15.393C133.061 10.1941 169.405 -8.55294 171.462 17.0483C172.037 24.2028 172.115 32.5655 169.471 39.4067Z" fill="#F9C558"/>
<path d="M74.5556 778.153C67.0594 792.367 63.2418 797.451 53.1183 803.883C53.1183 803.883 46.4585 806.806 42.0229 810.755C37.5873 814.704 33.8952 826.342 37.379 831.947C40.7514 837.373 44.085 837.837 49.2098 841.302C54.9677 845.195 69.1623 841.684 74.0762 837.899C85.2067 829.325 94.0232 814.81 95.993 800.276C96.7345 794.804 96.2669 789.01 96.2669 783.466V763.089C96.2669 756.817 95.8838 750.432 98.7326 744.715C102.526 737.102 107.606 744.553 109.862 748.899C114.798 758.404 120.29 765.947 126.95 774.078C131.511 779.645 136.781 779.574 142.977 776.552C149.77 773.239 154.271 763.502 158.49 757.45C160.658 754.34 163.852 749.538 168.079 750.536C171.412 751.323 174.552 760.192 175.921 762.944C178.621 768.376 183.428 769.884 188.728 768.693C193.281 767.67 199.174 761.287 201.673 757.304C205.695 750.894 206.628 742.522 211.57 736.746C215.769 731.838 220.57 726.89 226.466 724.302C231.995 721.876 237.551 720.503 242.048 716.079C249.854 708.399 248.707 694.692 245.781 684.86C243.037 675.641 234.075 654.313 222.494 661.427C213.155 667.164 212.295 676.624 207.769 686.024C204.524 692.763 199.842 698.549 196.742 705.454C193.362 712.982 191.009 721.758 185.715 728.086C179.652 735.333 174.535 726.463 171.948 721.027C168.774 714.357 163.391 707.721 155.922 712.659C147.193 718.429 149.959 753.125 133.252 742.277C127.658 738.645 126.872 728.136 125.855 722.046C124.268 712.55 121.514 702.462 114.28 696.139C101.193 684.702 91.5158 727.676 89.7946 733.799C85.5155 749.02 81.9074 764.213 74.5556 778.153Z" fill="#00B99A"/>
<path d="M157.146 1939.52C158.693 1956.78 160.33 1963.37 167.455 1973.67C167.455 1973.67 172.659 1979.11 175.334 1984.77C178.01 1990.44 176.941 2003.66 171.404 2008.09C166.044 2012.37 162.679 2011.61 156.42 2013.25C149.387 2015.09 137.224 2006.27 134.027 2000.59C126.786 1987.74 124.098 1969.69 127.954 1954.15C129.405 1948.3 132.138 1942.56 134.326 1936.91L142.367 1916.15C144.842 1909.75 147.728 1903.39 147.265 1896.51C146.648 1887.35 138.859 1893.06 134.99 1896.66C126.528 1904.52 118.309 1910.18 108.742 1916.01C102.192 1919.99 97.1903 1917.97 92.4681 1912.6C87.2917 1906.72 86.838 1895.13 85.1989 1887.4C84.3568 1883.43 83.2026 1877.36 78.7745 1876.81C75.2827 1876.38 68.7849 1884.26 66.3926 1886.56C61.6714 1891.1 56.488 1890.86 51.8987 1887.68C47.9568 1884.96 44.8506 1876.27 44.0371 1871.29C42.7276 1863.27 45.1407 1854.4 42.703 1846.68C40.6316 1840.13 38.0017 1833.31 33.3946 1828.49C29.0751 1823.98 24.3131 1820.53 21.7667 1814.36C17.3463 1803.64 23.85 1790.1 30.5237 1781.16C36.7808 1772.78 53.7513 1754.35 61.9984 1765.88C68.649 1775.18 65.7366 1785.14 66.3476 1796.39C66.7856 1804.46 68.9706 1812.09 69.2054 1820.27C69.4614 1829.19 68.2436 1839.01 70.7997 1847.41C73.727 1857.04 82.1117 1849.89 86.7258 1845.31C92.3879 1839.68 100.145 1834.91 105.326 1842.7C111.381 1851.81 95.0487 1886.15 115.277 1881.27C122.05 1879.63 126.947 1869.21 130.322 1863.38C135.584 1854.29 142.193 1845.03 151.593 1841.26C168.598 1834.44 160.877 1881.81 160.104 1888.69C158.182 1905.78 155.63 1922.6 157.146 1939.52Z" fill="#F9C558"/>
<path d="M157.471 1047.65C162.232 1042.75 166.026 1036.59 170.094 1031.06L171.249 1027.57C173.088 1018.85 163.216 1023.59 156.226 1026.96C152.275 1028.87 148.916 1034.14 145.552 1037.06C139.767 1042.08 132.865 1045.65 125.514 1044.49C115.44 1042.9 108.796 1032.77 112.969 1022.38C116.001 1014.83 122.06 1008.98 126.091 1002.06C128.795 997.413 133.468 986.515 128.275 982.413C123.498 978.639 114.974 981.177 109.535 982.384C106.259 983.111 99.5946 984.725 97.0513 981.502C95.9893 980.156 98.5081 977.346 99.1948 976.413C102.17 972.373 106.16 967.211 106.39 962.054C106.669 955.825 103.093 951.23 98.4678 948.028C88.9545 941.444 78.7988 939.275 67.2227 938.576C54.9382 937.833 37.6197 935.433 26.5731 943.934C22.992 946.69 18.7087 952.154 18.066 956.878C17.5629 960.577 21.1244 963.201 23.7877 964.581C30.0218 967.812 38.0988 968.626 45.1498 968.461C54.274 968.248 62.6613 965.233 71.6345 963.809C76.4361 963.048 82.1759 967.248 79.9421 972.911C76.9286 980.55 69.8372 985.816 66.6103 993.334C64.0849 999.218 68.8642 1003.43 73.4737 1005.46C78.5047 1007.68 84.5181 1006.98 89.8854 1005.74C93.4057 1004.92 103.241 1001.54 104.596 1006.97C105.804 1011.82 102.45 1017.57 100.227 1021.71C96.9339 1027.84 92.3412 1034.26 90.3727 1040.98C88.7363 1046.57 89.8155 1049.96 94.4114 1052.96C106.535 1060.86 122.485 1058.52 136.402 1056.81C143.425 1055.94 152.188 1053.08 157.471 1047.65Z" fill="#0590CB"/>
<path d="M49.781 1528.98C50.3753 1532.76 51.2654 1537.44 53.0138 1539.19L55.7562 1544.04C57.7927 1547 55.9895 1544.39 57.9355 1547.69C59.9233 1551.07 61.6425 1555.19 64.696 1555.59C67.9135 1556.01 68.2509 1551.62 67.8292 1546.63C67.6347 1544.32 66.5846 1530.79 69.7436 1531.99C71.6957 1532.74 73.8812 1537.05 75.0577 1539.71C76.3725 1542.69 77.0667 1546.26 78.6425 1548.96C81.7409 1554.27 88.0169 1551.5 91.9946 1549.25C96.9743 1546.44 106.058 1537.79 103.182 1526.56C101.344 1519.38 98.1923 1512.43 101.706 1503.92C102.301 1502.48 107.058 1510.65 107.932 1511.45C110.223 1513.55 115.792 1515.21 118.035 1510.48C120.3 1505.72 115.48 1496.39 114.196 1493.8C113.352 1492.1 109.172 1481.83 113.562 1481.57C117.903 1481.3 122.359 1485.07 125.583 1489.45C129.478 1494.75 133.677 1499.29 137.594 1504.55C140.838 1508.9 146.948 1514.54 151.331 1509.09C155.738 1503.62 155.34 1491.08 152.933 1484.74C148.132 1472.09 140.355 1462.08 133.914 1452.26C127.144 1441.94 117.109 1428.74 106.918 1434.86C100.145 1438.93 99.3583 1452.64 101.536 1461.97C102.101 1464.4 105.943 1479.2 101.68 1478.97C94.5364 1478.59 89.8585 1462.77 82.2262 1471.48C79.5535 1474.53 80.2669 1480.36 80.6535 1484.73C81.3713 1492.83 84.8248 1500.34 86.8698 1507.31C88.056 1511.35 89.2872 1515.66 88.7804 1520.65C88.502 1523.4 87.9025 1528.64 85.8836 1529.16C83.9909 1529.65 82.4664 1527.56 81.0635 1525.94C78.9542 1523.52 76.7198 1521.44 74.5804 1519.1C71.0318 1515.21 51.6159 1490.74 49.7924 1511.21C49.2828 1516.93 48.935 1523.61 49.781 1528.98Z" fill="#FE8363"/>
<path d="M466.641 258.842C474.5 258.714 477.233 258.402 481.098 257.19C485.651 255.762 487 255.909 488.966 253.477C490.932 251.044 492.038 250.285 491.875 246.637C491.693 242.572 485.393 237.568 485.393 237.568C484.262 236.387 482.342 234.697 481.124 233.813C479.221 232.432 468.222 225.998 458.108 220.351C453.721 217.902 453.086 215.555 456.584 214.715C457.253 214.554 461.871 215.232 466.847 216.222C482.112 219.256 489.177 220.387 491.117 220.107C493.684 219.737 496.66 217.861 497.555 216.051C500.464 210.167 496.032 202.124 487.178 197.219C481.695 194.181 478.095 191.575 477.798 190.428C477.365 188.753 479.506 188.396 487.265 188.847C492.983 189.18 495.9 189.019 498.317 188.24C505.891 185.798 507.978 179.055 503.442 171.673C498.939 164.343 493.501 163.167 472.531 164.991C464.753 165.668 462.693 165.646 456.321 164.826C446.328 163.539 442.091 164.543 440.716 168.526C439.076 173.273 442.057 177.905 452.427 186.725C458.957 192.279 459.919 193.703 458.09 195.113C456.807 196.102 456.869 196.107 444.771 194.089C436.637 192.732 430.291 192.912 425.977 194.621C415.739 198.678 413.76 202.136 417.876 208.779C421.83 215.16 428.407 219.867 449.064 231.096C455.707 234.708 457.203 236.138 455.697 237.439C454.903 238.125 444.257 236.329 439.156 234.65L421.661 231.733C416.537 231.851 411.541 233.408 408.933 235.702C406.308 238.012 405.492 242.748 407.054 246.626C409.067 251.624 412.054 254.08 420.143 257.387C427.603 260.438 438.164 261.487 448.226 260.178C454.44 259.37 460.297 258.944 466.641 258.842Z" fill="#FE8363"/>
<path d="M390.964 1279.14C387.982 1288.67 387.24 1292.11 387.034 1297.36C386.793 1303.55 386.096 1305.1 387.984 1308.67C389.872 1312.24 390.267 1313.94 394.335 1315.54C398.868 1317.33 406.862 1312.21 406.862 1312.21C408.607 1311.43 411.224 1309.95 412.678 1308.92C414.95 1307.31 426.379 1297.23 436.594 1287.84C441.025 1283.76 443.852 1284.15 443.385 1288.78C443.295 1289.66 440.717 1294.89 437.655 1300.4C428.261 1317.28 424.214 1325.24 423.75 1327.71C423.137 1330.98 424.013 1335.49 425.645 1337.46C430.946 1343.87 441.534 1342.49 450.433 1334.25C455.945 1329.14 460.235 1326.09 461.611 1326.3C463.621 1326.61 463.163 1329.36 459.586 1338.48C456.95 1345.2 455.968 1348.8 455.863 1352.09C455.534 1362.42 462.105 1368.25 472.008 1366.43C481.841 1364.62 485.291 1358.65 491.619 1332.5C493.966 1322.8 494.807 1320.33 498.239 1313.06C503.621 1301.66 504.202 1296.06 500.377 1292.44C495.818 1288.12 489.551 1289.43 475.752 1297.57C467.063 1302.7 465.119 1303.15 464.299 1300.26C463.723 1298.22 463.693 1298.3 470.712 1284.72C475.432 1275.59 477.755 1267.86 477.593 1261.82C477.208 1247.49 474.2 1243.4 465.274 1245.09C456.7 1246.7 448.923 1252.3 428.394 1271.65C421.792 1277.87 419.628 1278.96 418.799 1276.51C418.361 1275.21 424.561 1263.28 428.43 1257.96L438.579 1238.33C440.486 1232.1 440.761 1225.32 439.279 1221.04C437.787 1216.74 432.914 1213.43 428.038 1213.4C421.753 1213.36 417.871 1215.74 411.029 1223.85C404.718 1231.34 399.372 1243.54 396.812 1256.3C395.231 1264.18 393.371 1271.45 390.964 1279.14Z" fill="#7DE2F2"/>
<path d="M477.74 1733.97C478.621 1745.33 478.678 1749.45 478.038 1755.76C477.284 1763.19 477.593 1765.03 475.572 1769.37C473.551 1773.72 472.982 1775.78 469.555 1777.82C465.736 1780.1 460.259 1774.17 460.259 1774.17C459.012 1773.28 457.19 1771.58 456.209 1770.38C454.677 1768.51 447.267 1756.73 440.705 1745.73C437.858 1740.96 435.585 1741.51 435.246 1747.06C435.182 1748.12 436.403 1754.33 437.961 1760.86C442.739 1780.89 444.695 1790.33 444.681 1793.29C444.662 1797.21 443.289 1802.65 441.713 1805.07C436.588 1812.91 428.511 1811.57 422.803 1801.91C419.267 1795.93 416.374 1792.39 415.266 1792.68C413.646 1793.1 413.585 1796.4 414.995 1807.26C416.034 1815.27 416.255 1819.56 415.835 1823.51C414.519 1835.91 408.488 1843.12 401.016 1841.21C393.596 1839.32 391.806 1832.24 390.838 1800.99C390.479 1789.4 390.197 1786.45 388.619 1777.81C386.144 1764.27 386.542 1757.55 390.087 1753.09C394.312 1747.78 399.017 1749.17 408.576 1758.56C414.595 1764.47 416.047 1764.96 417.131 1761.45C417.891 1758.99 417.903 1759.08 414.478 1742.97C412.175 1732.13 411.535 1722.91 412.581 1715.64C415.066 1698.41 418.043 1693.41 424.772 1695.17C431.236 1696.87 436.469 1703.38 449.588 1726.04C453.807 1733.32 455.334 1734.58 456.357 1731.6C456.896 1730.04 453.863 1715.87 451.644 1709.59L446.693 1686.29C446.149 1678.85 446.968 1670.71 448.778 1665.53C450.601 1660.32 454.921 1656.19 458.741 1656.02C463.665 1655.79 466.34 1658.54 470.459 1668.1C474.258 1676.91 476.583 1691.42 476.642 1706.69C476.679 1716.11 477.027 1724.79 477.74 1733.97Z" fill="#00B99A"/>
<path d="M411.092 887.905C418.595 890.828 421.293 891.559 425.371 891.77C430.173 892.019 431.403 892.701 434.089 890.871C436.775 889.041 438.081 888.661 439.155 884.705C440.353 880.297 436.06 872.504 436.06 872.504C435.385 870.804 434.132 868.254 433.274 866.836C431.934 864.622 423.663 853.475 415.967 843.513C412.629 839.191 412.817 836.439 416.42 836.905C417.109 836.994 421.264 839.515 425.653 842.508C439.119 851.688 445.443 855.645 447.379 856.101C449.94 856.705 453.396 855.863 454.856 854.279C459.6 849.134 458.104 838.825 451.355 830.145C447.174 824.769 444.636 820.587 444.741 819.248C444.895 817.292 447.047 817.744 454.259 821.246C459.574 823.826 462.397 824.791 464.953 824.9C472.965 825.243 477.218 818.86 475.402 809.218C473.598 799.643 468.833 796.272 448.316 790.055C440.706 787.749 438.757 786.924 432.986 783.569C423.935 778.305 419.575 777.727 416.928 781.442C413.771 785.869 415.039 791.972 421.909 805.421C426.235 813.889 426.668 815.783 424.457 816.575C422.905 817.13 422.963 817.16 412.16 810.298C404.898 805.684 398.814 803.405 394.143 803.55C383.059 803.893 380.015 806.812 381.682 815.503C383.284 823.852 387.941 831.434 403.761 851.457C408.85 857.897 409.787 860.006 407.919 860.808C406.935 861.23 397.435 855.17 393.16 851.392L377.538 841.47C372.635 839.601 367.368 839.318 364.12 840.751C360.849 842.194 358.48 846.93 358.655 851.675C358.881 857.792 360.888 861.576 367.451 868.254C373.503 874.412 383.173 879.643 393.164 882.163C399.335 883.719 405.036 885.545 411.092 887.905Z" fill="#FFC7C7"/>
<path d="M376.796 525.861C382.822 515.235 390.411 504.844 397.211 494.624L401.502 490.094C412.214 480.202 406.37 497.646 402.203 510.017C399.848 517.01 393.369 526.045 389.77 533.097C383.58 545.229 379.179 557.641 380.58 566.661C382.5 579.021 394.932 579.465 407.703 564.982C416.982 554.459 424.189 541.255 432.708 529.899C438.421 522.284 451.821 506.687 456.845 510.274C461.467 513.573 458.323 527.321 456.825 535.745C455.922 540.818 453.92 551.253 457.871 551.98C459.521 552.284 462.981 546.475 464.129 544.75C469.1 537.278 475.454 527.473 481.789 522.787C489.442 517.127 495.076 518.095 498.995 521.674C507.054 529.035 509.689 541.012 510.513 556.168C511.389 572.251 514.286 593.777 503.81 616.013C500.414 623.222 493.69 633.681 487.884 638.561C483.339 642.381 480.127 639.76 478.439 637.307C474.489 631.565 473.513 621.267 473.736 611.535C474.025 598.941 477.754 584.974 479.529 571.559C480.479 564.381 475.337 560.133 468.373 567.973C458.98 578.55 452.491 592.662 443.246 603.426C436.011 611.85 430.853 608.917 428.368 604.371C425.654 599.409 426.536 590.632 428.082 582.275C429.095 576.793 433.27 560.552 426.603 563.313C420.657 565.775 413.576 575.218 408.488 581.749C400.949 591.426 393.053 603.114 384.79 611.491C377.922 618.454 373.751 619.867 370.085 616.154C360.415 606.359 363.338 582.675 365.485 562.289C366.568 552 370.111 537.651 376.796 525.861Z" fill="#8B7FFF"/>
</g>
<defs>
<clipPath id="clip0_51_1206">
<rect width="550" height="2020" fill="white"/>
</clipPath>
</defs>
</svg>
